<?xml version="1.0" encoding="UTF-8"?>
<!DOCTYPE svg PUBLIC "-//W3C//DTD SVG 1.1//EN" "http://www.w3.org/Graphics/SVG/1.1/DTD/svg11.dtd">
<!-- Creator: CorelDRAW X8 -->
<svg xmlns="http://www.w3.org/2000/svg" xml:space="preserve" width="800px" height="800px" version="1.1" style="shape-rendering:geometricPrecision; text-rendering:geometricPrecision; image-rendering:optimizeQuality; fill-rule:evenodd; clip-rule:evenodd"
viewBox="0 0 800 800"
 xmlns:xlink="http://www.w3.org/1999/xlink">
 <defs>
  <style type="text/css">
   <![CDATA[
    .fil1 {fill:#9F6F31}
    .fil0 {fill:#9F6F31}
   ]]>
  </style>
 </defs>
 <g id="Layer_x0020_1">
  <metadata id="CorelCorpID_0Corel-Layer"/>
  <path class="fil0" d="M400 31c204,0 369,165 369,369 0,204 -165,369 -369,369 -204,0 -369,-165 -369,-369 0,-204 165,-369 369,-369zm0 14c196,0 355,159 355,355 0,196 -159,355 -355,355 -196,0 -355,-159 -355,-355 0,-196 159,-355 355,-355z"/>
  <path class="fil1" d="M574 272c-7,-7 -18,-7 -25,0l-218 217 -79 -85c-7,-8 -18,-8 -26,-1 -7,6 -8,18 -1,25l92 100c3,3 8,6 13,6 0,0 0,0 0,0 5,0 9,-2 13,-6l231 -231c8,-7 8,-18 0,-25z"/>
 </g>
</svg>
